<?xml version="1.0" encoding="utf-8"?>
<!-- Generator: Adobe Illustrator 25.1.0, SVG Export Plug-In . SVG Version: 6.00 Build 0)  -->
<svg version="1.1" id="Layer_1" xmlns="http://www.w3.org/2000/svg" xmlns:xlink="http://www.w3.org/1999/xlink" x="0px" y="0px"
	 viewBox="0 0 660 450" style="enable-background:new 0 0 660 450;" xml:space="preserve">
<style type="text/css">
	.st0{opacity:0.5;}
	.st1{fill:#FFFFFF;}
	.st2{fill:url(#SVGID_1_);}
	.st3{fill:url(#SVGID_2_);}
	.st4{fill:url(#SVGID_3_);}
	.st5{fill:url(#SVGID_4_);}
	.st6{fill:url(#SVGID_5_);}
	.st7{fill:url(#SVGID_6_);}
	.st8{fill:url(#SVGID_7_);}
	.st9{fill:url(#SVGID_8_);}
	.st10{fill:url(#SVGID_9_);}
	.st11{fill:url(#SVGID_10_);}
	.st12{fill:url(#SVGID_11_);}
	.st13{fill:url(#SVGID_12_);}
	.st14{fill:url(#SVGID_13_);}
	.st15{fill:url(#SVGID_14_);}
	.st16{fill:url(#SVGID_15_);}
	.st17{fill:url(#SVGID_16_);}
	.st18{fill:url(#SVGID_17_);}
	.st19{fill:url(#SVGID_18_);}
	.st20{fill:url(#SVGID_19_);}
	.st21{fill:url(#SVGID_20_);}
	.st22{fill:url(#SVGID_21_);}
	.st23{fill:url(#SVGID_22_);}
	.st24{fill:url(#SVGID_23_);}
	.st25{fill:url(#SVGID_24_);}
	.st26{fill:url(#SVGID_25_);}
	.st27{fill:url(#SVGID_26_);}
	.st28{fill:url(#SVGID_27_);}
	.st29{fill:url(#SVGID_28_);}
	.st30{fill:url(#SVGID_29_);}
	.st31{fill:url(#SVGID_30_);}
	.st32{fill:url(#SVGID_31_);}
	.st33{fill:url(#SVGID_32_);}
	.st34{fill:url(#SVGID_33_);}
	.st35{fill:url(#SVGID_34_);}
	.st36{fill:url(#SVGID_35_);}
	.st37{fill:url(#SVGID_36_);}
	.st38{opacity:0.95;fill:#F36DD4;}
	.st39{opacity:0.95;fill:url(#SVGID_37_);}
	.st40{opacity:0.95;fill:url(#SVGID_38_);}
	.st41{opacity:0.95;fill:url(#SVGID_39_);}
	.st42{fill:url(#SVGID_40_);}
	.st43{fill:url(#SVGID_41_);}
	.st44{opacity:0.95;fill:#FFFFFF;}
	.st45{opacity:0.95;fill:url(#SVGID_42_);}
	.st46{fill:url(#SVGID_43_);}
	.st47{fill:#CED3F4;}
	.st48{fill:url(#SVGID_44_);}
	.st49{fill:url(#SVGID_45_);}
	.st50{fill:#AFB6E5;}
	.st51{fill:url(#SVGID_46_);}
	.st52{fill:url(#SVGID_47_);}
	.st53{fill:url(#SVGID_48_);}
	.st54{fill:url(#SVGID_49_);}
	.st55{fill:url(#SVGID_50_);}
	.st56{fill:url(#SVGID_51_);}
	.st57{opacity:0.95;fill:url(#SVGID_52_);}
	.st58{opacity:0.95;fill:url(#SVGID_53_);}
	.st59{opacity:0.95;fill:url(#SVGID_54_);}
	.st60{fill:url(#SVGID_55_);}
	.st61{fill:url(#SVGID_56_);}
	.st62{fill:url(#SVGID_57_);}
	.st63{fill:url(#SVGID_58_);}
	.st64{fill:url(#SVGID_59_);}
	.st65{fill:url(#SVGID_60_);}
	.st66{fill:url(#SVGID_61_);}
	.st67{fill:url(#SVGID_62_);}
	.st68{fill:url(#SVGID_63_);}
	.st69{opacity:0.95;fill:url(#SVGID_64_);}
	.st70{opacity:0.95;fill:url(#SVGID_65_);}
	.st71{fill:url(#SVGID_66_);}
	.st72{fill:url(#SVGID_67_);}
	.st73{fill:url(#SVGID_68_);}
	.st74{fill:url(#SVGID_69_);}
	.st75{fill:url(#SVGID_70_);}
	.st76{fill:url(#SVGID_71_);}
	.st77{fill:url(#SVGID_72_);}
	.st78{fill:url(#SVGID_73_);}
	.st79{fill:url(#SVGID_74_);}
	.st80{fill:url(#SVGID_75_);}
</style>
<g>
	<g class="st0">
		<polygon class="st1" points="179.37,324.68 0,314.01 23.92,394.06 55.53,379.95 212.49,450 304.72,408.84 147.76,338.79 		"/>
		<linearGradient id="SVGID_1_" gradientUnits="userSpaceOnUse" x1="245.9456" y1="443.5464" x2="-61.0385" y2="266.3062">
			<stop  offset="0" style="stop-color:#F8F8FD"/>
			<stop  offset="0.5808" style="stop-color:#FDFDFF"/>
			<stop  offset="1" style="stop-color:#FFFFFF"/>
		</linearGradient>
		<polygon class="st2" points="55.5,377.83 25.38,391.27 2.81,315.74 172.05,325.81 143.28,338.66 299.97,408.59 212.19,447.76 		
			"/>
		<linearGradient id="SVGID_2_" gradientUnits="userSpaceOnUse" x1="242.53" y1="442.4383" x2="-56.8288" y2="269.6007">
			<stop  offset="0" style="stop-color:#F0F2FA"/>
			<stop  offset="0.4388" style="stop-color:#F7F8FD"/>
			<stop  offset="0.5808" style="stop-color:#FAFBFF"/>
			<stop  offset="1" style="stop-color:#FFFFFF"/>
		</linearGradient>
		<polygon class="st3" points="55.47,375.71 26.85,388.49 5.63,317.48 164.74,326.95 138.8,338.52 295.22,408.33 211.89,445.52 		
			"/>
		<linearGradient id="SVGID_3_" gradientUnits="userSpaceOnUse" x1="239.1143" y1="441.3303" x2="-52.6191" y2="272.8952">
			<stop  offset="0" style="stop-color:#E9EBF8"/>
			<stop  offset="0.3361" style="stop-color:#F0F1FB"/>
			<stop  offset="0.5808" style="stop-color:#F8F9FF"/>
			<stop  offset="1" style="stop-color:#FFFFFF"/>
		</linearGradient>
		<polygon class="st4" points="55.44,373.59 28.31,385.7 8.44,319.21 157.42,328.08 134.32,338.39 290.47,408.08 211.59,443.28 		
			"/>
		<linearGradient id="SVGID_4_" gradientUnits="userSpaceOnUse" x1="235.6987" y1="440.2222" x2="-48.4094" y2="276.1896">
			<stop  offset="0" style="stop-color:#E2E4F6"/>
			<stop  offset="0.2783" style="stop-color:#E9EAF9"/>
			<stop  offset="0.5808" style="stop-color:#F6F7FF"/>
			<stop  offset="1" style="stop-color:#FFFFFF"/>
		</linearGradient>
		<polygon class="st5" points="55.41,371.47 29.77,382.92 11.26,320.95 150.1,329.21 129.84,338.26 285.72,407.82 211.29,441.04 		
			"/>
		<linearGradient id="SVGID_5_" gradientUnits="userSpaceOnUse" x1="232.8377" y1="438.1534" x2="-43.645" y2="278.5234">
			<stop  offset="0" style="stop-color:#DBDEF3"/>
			<stop  offset="0.2469" style="stop-color:#E2E4F6"/>
			<stop  offset="0.5808" style="stop-color:#F3F5FF"/>
			<stop  offset="1" style="stop-color:#FFFFFF"/>
		</linearGradient>
		<polygon class="st6" points="55.38,369.36 31.24,380.13 14.07,322.69 142.79,330.35 125.37,338.12 280.98,407.57 210.99,438.8 		
			"/>
		<linearGradient id="SVGID_6_" gradientUnits="userSpaceOnUse" x1="230.0432" y1="435.9694" x2="-38.8141" y2="280.742">
			<stop  offset="0" style="stop-color:#D3D7F1"/>
			<stop  offset="0.2132" style="stop-color:#DADDF4"/>
			<stop  offset="0.5123" style="stop-color:#ECEEFD"/>
			<stop  offset="0.5808" style="stop-color:#F1F3FF"/>
			<stop  offset="1" style="stop-color:#FFFFFF"/>
		</linearGradient>
		<polygon class="st7" points="55.36,367.24 32.7,377.35 16.89,324.42 135.47,331.48 120.89,337.99 276.23,407.32 210.69,436.56 		
			"/>
		<linearGradient id="SVGID_7_" gradientUnits="userSpaceOnUse" x1="227.2487" y1="433.7854" x2="-33.9832" y2="282.9606">
			<stop  offset="0" style="stop-color:#CCD1EE"/>
			<stop  offset="0.1964" style="stop-color:#D3D7F1"/>
			<stop  offset="0.4718" style="stop-color:#E5E8FA"/>
			<stop  offset="0.5808" style="stop-color:#EEF1FF"/>
			<stop  offset="0.973" style="stop-color:#FEFEFF"/>
			<stop  offset="1" style="stop-color:#FFFFFF"/>
		</linearGradient>
		<polygon class="st8" points="55.33,365.12 34.16,374.56 19.7,326.16 128.16,332.62 116.41,337.86 271.48,407.06 210.39,434.32 		
			"/>
		<linearGradient id="SVGID_8_" gradientUnits="userSpaceOnUse" x1="224.4543" y1="431.6014" x2="-29.1524" y2="285.1791">
			<stop  offset="0" style="stop-color:#C5CAEC"/>
			<stop  offset="0.1795" style="stop-color:#CCD0EF"/>
			<stop  offset="0.4311" style="stop-color:#DEE2F8"/>
			<stop  offset="0.5808" style="stop-color:#ECEFFF"/>
			<stop  offset="0.938" style="stop-color:#FCFCFF"/>
			<stop  offset="1" style="stop-color:#FFFFFF"/>
		</linearGradient>
		<polygon class="st9" points="55.3,363 35.63,371.78 22.51,327.9 120.84,333.75 111.93,337.73 266.73,406.81 210.09,432.08 		"/>
		<linearGradient id="SVGID_9_" gradientUnits="userSpaceOnUse" x1="221.6598" y1="429.4174" x2="-24.3215" y2="287.3977">
			<stop  offset="0" style="stop-color:#BEC3EA"/>
			<stop  offset="0.1658" style="stop-color:#C5C9ED"/>
			<stop  offset="0.3982" style="stop-color:#D7DBF6"/>
			<stop  offset="0.5808" style="stop-color:#EAEDFF"/>
			<stop  offset="0.9091" style="stop-color:#FAFAFF"/>
			<stop  offset="1" style="stop-color:#FFFFFF"/>
		</linearGradient>
		<polygon class="st10" points="55.27,360.88 37.09,369 25.33,329.63 113.53,334.88 107.45,337.59 261.98,406.55 209.79,429.84 		
			"/>
		<linearGradient id="SVGID_10_" gradientUnits="userSpaceOnUse" x1="218.8653" y1="427.2334" x2="-19.4906" y2="289.6163">
			<stop  offset="0" style="stop-color:#B6BDE7"/>
			<stop  offset="0.1545" style="stop-color:#BDC3EA"/>
			<stop  offset="0.371" style="stop-color:#CFD4F3"/>
			<stop  offset="0.5808" style="stop-color:#E7EBFF"/>
			<stop  offset="0.8742" style="stop-color:#F7F8FF"/>
			<stop  offset="1" style="stop-color:#FFFFFF"/>
		</linearGradient>
		<polygon class="st11" points="55.24,358.76 38.55,366.21 28.14,331.37 106.21,336.02 102.98,337.46 257.23,406.3 209.49,427.6 		
			"/>
		<linearGradient id="SVGID_11_" gradientUnits="userSpaceOnUse" x1="216.0709" y1="425.0493" x2="-14.6597" y2="291.8348">
			<stop  offset="0" style="stop-color:#AFB6E5"/>
			<stop  offset="0.1449" style="stop-color:#B6BCE8"/>
			<stop  offset="0.3485" style="stop-color:#C8CDF1"/>
			<stop  offset="0.5808" style="stop-color:#E5E9FF"/>
			<stop  offset="0.8551" style="stop-color:#F5F6FF"/>
			<stop  offset="1" style="stop-color:#FFFFFF"/>
		</linearGradient>
		<polygon class="st12" points="55.21,356.65 40.02,363.43 30.96,333.11 98.89,337.15 98.5,337.33 252.48,406.05 209.19,425.36 		
			"/>
	</g>
	<g class="st0">
		<polygon class="st1" points="273.41,217.39 94.05,206.72 117.97,286.77 149.58,272.66 375.58,377.01 467.81,335.85 241.8,231.5 		
			"/>
		<linearGradient id="SVGID_12_" gradientUnits="userSpaceOnUse" x1="400.1972" y1="371.0202" x2="15.4554" y2="148.8858">
			<stop  offset="0" style="stop-color:#F8F8FD"/>
			<stop  offset="0.5808" style="stop-color:#FDFDFF"/>
			<stop  offset="1" style="stop-color:#FFFFFF"/>
		</linearGradient>
		<polygon class="st13" points="149.55,270.54 119.43,283.98 96.86,208.46 266.1,218.53 237.32,231.37 463.06,335.6 375.28,374.77 
					"/>
		<linearGradient id="SVGID_13_" gradientUnits="userSpaceOnUse" x1="396.7816" y1="369.9121" x2="19.6651" y2="152.1802">
			<stop  offset="0" style="stop-color:#F0F2FA"/>
			<stop  offset="0.4388" style="stop-color:#F7F8FD"/>
			<stop  offset="0.5808" style="stop-color:#FAFBFF"/>
			<stop  offset="1" style="stop-color:#FFFFFF"/>
		</linearGradient>
		<polygon class="st14" points="149.52,268.42 120.89,281.2 99.67,210.19 258.78,219.66 232.85,231.24 458.31,335.35 374.98,372.53 
					"/>
		<linearGradient id="SVGID_14_" gradientUnits="userSpaceOnUse" x1="393.8826" y1="367.9092" x2="24.3914" y2="154.5799">
			<stop  offset="0" style="stop-color:#E9EBF8"/>
			<stop  offset="0.3361" style="stop-color:#F0F1FB"/>
			<stop  offset="0.5808" style="stop-color:#F8F9FF"/>
			<stop  offset="1" style="stop-color:#FFFFFF"/>
		</linearGradient>
		<polygon class="st15" points="149.49,266.31 122.36,278.42 102.49,211.93 251.47,220.79 228.37,231.1 453.56,335.09 374.68,370.3 
					"/>
		<linearGradient id="SVGID_15_" gradientUnits="userSpaceOnUse" x1="391.0881" y1="365.7252" x2="29.2223" y2="156.7985">
			<stop  offset="0" style="stop-color:#E2E4F6"/>
			<stop  offset="0.2783" style="stop-color:#E9EAF9"/>
			<stop  offset="0.5808" style="stop-color:#F6F7FF"/>
			<stop  offset="1" style="stop-color:#FFFFFF"/>
		</linearGradient>
		<polygon class="st16" points="149.46,264.19 123.82,275.63 105.3,213.66 244.15,221.93 223.89,230.97 448.81,334.84 
			374.38,368.06 		"/>
		<linearGradient id="SVGID_16_" gradientUnits="userSpaceOnUse" x1="388.2936" y1="363.5412" x2="34.0532" y2="159.0171">
			<stop  offset="0" style="stop-color:#DBDEF3"/>
			<stop  offset="0.2469" style="stop-color:#E2E4F6"/>
			<stop  offset="0.5808" style="stop-color:#F3F5FF"/>
			<stop  offset="1" style="stop-color:#FFFFFF"/>
		</linearGradient>
		<polygon class="st17" points="149.43,262.07 125.28,272.85 108.12,215.4 236.83,223.06 219.41,230.84 444.06,334.58 
			374.08,365.82 		"/>
		<linearGradient id="SVGID_17_" gradientUnits="userSpaceOnUse" x1="385.4991" y1="361.3572" x2="38.8841" y2="161.2356">
			<stop  offset="0" style="stop-color:#D3D7F1"/>
			<stop  offset="0.2132" style="stop-color:#DADDF4"/>
			<stop  offset="0.5123" style="stop-color:#ECEEFD"/>
			<stop  offset="0.5808" style="stop-color:#F1F3FF"/>
			<stop  offset="1" style="stop-color:#FFFFFF"/>
		</linearGradient>
		<polygon class="st18" points="149.4,259.95 126.75,270.06 110.93,217.14 229.52,224.2 214.93,230.7 439.32,334.33 373.78,363.58 
					"/>
		<linearGradient id="SVGID_18_" gradientUnits="userSpaceOnUse" x1="382.7047" y1="359.1732" x2="43.7149" y2="163.4542">
			<stop  offset="0" style="stop-color:#CCD1EE"/>
			<stop  offset="0.1964" style="stop-color:#D3D7F1"/>
			<stop  offset="0.4718" style="stop-color:#E5E8FA"/>
			<stop  offset="0.5808" style="stop-color:#EEF1FF"/>
			<stop  offset="0.973" style="stop-color:#FEFEFF"/>
			<stop  offset="1" style="stop-color:#FFFFFF"/>
		</linearGradient>
		<polygon class="st19" points="149.37,257.83 128.21,267.28 113.75,218.87 222.2,225.33 210.46,230.57 434.57,334.08 
			373.48,361.34 		"/>
		<linearGradient id="SVGID_19_" gradientUnits="userSpaceOnUse" x1="379.9102" y1="356.9892" x2="48.5458" y2="165.6728">
			<stop  offset="0" style="stop-color:#C5CAEC"/>
			<stop  offset="0.1795" style="stop-color:#CCD0EF"/>
			<stop  offset="0.4311" style="stop-color:#DEE2F8"/>
			<stop  offset="0.5808" style="stop-color:#ECEFFF"/>
			<stop  offset="0.938" style="stop-color:#FCFCFF"/>
			<stop  offset="1" style="stop-color:#FFFFFF"/>
		</linearGradient>
		<polygon class="st20" points="149.34,255.71 129.67,264.49 116.56,220.61 214.89,226.46 205.98,230.44 429.82,333.82 
			373.18,359.1 		"/>
		<linearGradient id="SVGID_20_" gradientUnits="userSpaceOnUse" x1="377.1158" y1="354.8052" x2="53.3767" y2="167.8913">
			<stop  offset="0" style="stop-color:#BEC3EA"/>
			<stop  offset="0.1658" style="stop-color:#C5C9ED"/>
			<stop  offset="0.3982" style="stop-color:#D7DBF6"/>
			<stop  offset="0.5808" style="stop-color:#EAEDFF"/>
			<stop  offset="0.9091" style="stop-color:#FAFAFF"/>
			<stop  offset="1" style="stop-color:#FFFFFF"/>
		</linearGradient>
		<polygon class="st21" points="149.32,253.6 131.14,261.71 119.37,222.35 207.57,227.6 201.5,230.31 425.07,333.57 372.88,356.86 
					"/>
		<linearGradient id="SVGID_21_" gradientUnits="userSpaceOnUse" x1="374.3213" y1="352.6212" x2="58.2076" y2="170.1099">
			<stop  offset="0" style="stop-color:#B6BDE7"/>
			<stop  offset="0.1545" style="stop-color:#BDC3EA"/>
			<stop  offset="0.371" style="stop-color:#CFD4F3"/>
			<stop  offset="0.5808" style="stop-color:#E7EBFF"/>
			<stop  offset="0.8742" style="stop-color:#F7F8FF"/>
			<stop  offset="1" style="stop-color:#FFFFFF"/>
		</linearGradient>
		<polygon class="st22" points="149.29,251.48 132.6,258.92 122.19,224.08 200.26,228.73 197.02,230.17 420.32,333.31 
			372.58,354.62 		"/>
		<linearGradient id="SVGID_22_" gradientUnits="userSpaceOnUse" x1="371.5268" y1="350.4372" x2="63.0385" y2="172.3285">
			<stop  offset="0" style="stop-color:#AFB6E5"/>
			<stop  offset="0.1449" style="stop-color:#B6BCE8"/>
			<stop  offset="0.3485" style="stop-color:#C8CDF1"/>
			<stop  offset="0.5808" style="stop-color:#E5E9FF"/>
			<stop  offset="0.8551" style="stop-color:#F5F6FF"/>
			<stop  offset="1" style="stop-color:#FFFFFF"/>
		</linearGradient>
		<polygon class="st23" points="149.26,249.36 134.06,256.14 125,225.82 192.94,229.86 192.54,230.04 415.57,333.06 372.28,352.38 
					"/>
	</g>
	<g class="st0">
		<polygon class="st1" points="385.37,123.93 206.01,113.25 229.93,193.3 261.54,179.19 539.79,303.74 632.02,262.58 353.76,138.03 
					"/>
		<linearGradient id="SVGID_23_" gradientUnits="userSpaceOnUse" x1="556.8971" y1="300.0723" x2="116.2238" y2="45.6453">
			<stop  offset="0" style="stop-color:#F8F8FD"/>
			<stop  offset="0.5808" style="stop-color:#FDFDFF"/>
			<stop  offset="1" style="stop-color:#FFFFFF"/>
		</linearGradient>
		<polygon class="st24" points="261.51,177.07 231.39,190.52 208.82,114.99 378.06,125.06 349.29,137.9 627.27,262.32 539.49,301.5 
					"/>
		<linearGradient id="SVGID_24_" gradientUnits="userSpaceOnUse" x1="554.1026" y1="297.8883" x2="121.0547" y2="47.8639">
			<stop  offset="0" style="stop-color:#F0F2FA"/>
			<stop  offset="0.4388" style="stop-color:#F7F8FD"/>
			<stop  offset="0.5808" style="stop-color:#FAFBFF"/>
			<stop  offset="1" style="stop-color:#FFFFFF"/>
		</linearGradient>
		<polygon class="st25" points="261.48,174.96 232.85,187.73 211.64,116.72 370.74,126.19 344.81,137.77 622.52,262.07 
			539.19,299.26 		"/>
		<linearGradient id="SVGID_25_" gradientUnits="userSpaceOnUse" x1="551.3082" y1="295.7043" x2="125.8856" y2="50.0824">
			<stop  offset="0" style="stop-color:#E9EBF8"/>
			<stop  offset="0.3361" style="stop-color:#F0F1FB"/>
			<stop  offset="0.5808" style="stop-color:#F8F9FF"/>
			<stop  offset="1" style="stop-color:#FFFFFF"/>
		</linearGradient>
		<polygon class="st26" points="261.45,172.84 234.32,184.95 214.45,118.46 363.43,127.33 340.33,137.63 617.77,261.82 
			538.89,297.02 		"/>
		<linearGradient id="SVGID_26_" gradientUnits="userSpaceOnUse" x1="548.5137" y1="293.5203" x2="130.7164" y2="52.301">
			<stop  offset="0" style="stop-color:#E2E4F6"/>
			<stop  offset="0.2783" style="stop-color:#E9EAF9"/>
			<stop  offset="0.5808" style="stop-color:#F6F7FF"/>
			<stop  offset="1" style="stop-color:#FFFFFF"/>
		</linearGradient>
		<polygon class="st27" points="261.42,170.72 235.78,182.16 217.26,120.2 356.11,128.46 335.85,137.5 613.02,261.56 538.59,294.78 
					"/>
		<linearGradient id="SVGID_27_" gradientUnits="userSpaceOnUse" x1="545.7192" y1="291.3363" x2="135.5473" y2="54.5196">
			<stop  offset="0" style="stop-color:#DBDEF3"/>
			<stop  offset="0.2469" style="stop-color:#E2E4F6"/>
			<stop  offset="0.5808" style="stop-color:#F3F5FF"/>
			<stop  offset="1" style="stop-color:#FFFFFF"/>
		</linearGradient>
		<polygon class="st28" points="261.39,168.6 237.24,179.38 220.08,121.93 348.8,129.59 331.37,137.37 608.27,261.31 538.29,292.54 
					"/>
		<linearGradient id="SVGID_28_" gradientUnits="userSpaceOnUse" x1="542.9247" y1="289.1523" x2="140.3782" y2="56.7381">
			<stop  offset="0" style="stop-color:#D3D7F1"/>
			<stop  offset="0.2132" style="stop-color:#DADDF4"/>
			<stop  offset="0.5123" style="stop-color:#ECEEFD"/>
			<stop  offset="0.5808" style="stop-color:#F1F3FF"/>
			<stop  offset="1" style="stop-color:#FFFFFF"/>
		</linearGradient>
		<polygon class="st29" points="261.36,166.48 238.71,176.59 222.89,123.67 341.48,130.73 326.89,137.24 603.52,261.06 
			537.99,290.3 		"/>
		<linearGradient id="SVGID_29_" gradientUnits="userSpaceOnUse" x1="540.1303" y1="286.9683" x2="145.2091" y2="58.9567">
			<stop  offset="0" style="stop-color:#CCD1EE"/>
			<stop  offset="0.1964" style="stop-color:#D3D7F1"/>
			<stop  offset="0.4718" style="stop-color:#E5E8FA"/>
			<stop  offset="0.5808" style="stop-color:#EEF1FF"/>
			<stop  offset="0.973" style="stop-color:#FEFEFF"/>
			<stop  offset="1" style="stop-color:#FFFFFF"/>
		</linearGradient>
		<polygon class="st30" points="261.33,164.36 240.17,173.81 225.71,125.41 334.16,131.86 322.42,137.1 598.77,260.8 537.69,288.06 
					"/>
		<linearGradient id="SVGID_30_" gradientUnits="userSpaceOnUse" x1="537.3358" y1="284.7843" x2="150.04" y2="61.1753">
			<stop  offset="0" style="stop-color:#C5CAEC"/>
			<stop  offset="0.1795" style="stop-color:#CCD0EF"/>
			<stop  offset="0.4311" style="stop-color:#DEE2F8"/>
			<stop  offset="0.5808" style="stop-color:#ECEFFF"/>
			<stop  offset="0.938" style="stop-color:#FCFCFF"/>
			<stop  offset="1" style="stop-color:#FFFFFF"/>
		</linearGradient>
		<polygon class="st31" points="261.31,162.25 241.63,171.02 228.52,127.14 326.85,132.99 317.94,136.97 594.03,260.55 
			537.39,285.82 		"/>
		<linearGradient id="SVGID_31_" gradientUnits="userSpaceOnUse" x1="534.5414" y1="282.6003" x2="154.8709" y2="63.3938">
			<stop  offset="0" style="stop-color:#BEC3EA"/>
			<stop  offset="0.1658" style="stop-color:#C5C9ED"/>
			<stop  offset="0.3982" style="stop-color:#D7DBF6"/>
			<stop  offset="0.5808" style="stop-color:#EAEDFF"/>
			<stop  offset="0.9091" style="stop-color:#FAFAFF"/>
			<stop  offset="1" style="stop-color:#FFFFFF"/>
		</linearGradient>
		<polygon class="st32" points="261.28,160.13 243.1,168.24 231.34,128.88 319.53,134.13 313.46,136.84 589.28,260.29 
			537.09,283.58 		"/>
		<linearGradient id="SVGID_32_" gradientUnits="userSpaceOnUse" x1="531.7469" y1="280.4163" x2="159.7018" y2="65.6124">
			<stop  offset="0" style="stop-color:#B6BDE7"/>
			<stop  offset="0.1545" style="stop-color:#BDC3EA"/>
			<stop  offset="0.371" style="stop-color:#CFD4F3"/>
			<stop  offset="0.5808" style="stop-color:#E7EBFF"/>
			<stop  offset="0.8742" style="stop-color:#F7F8FF"/>
			<stop  offset="1" style="stop-color:#FFFFFF"/>
		</linearGradient>
		<polygon class="st33" points="261.25,158.01 244.56,165.46 234.15,130.61 312.22,135.26 308.98,136.7 584.53,260.04 
			536.79,281.34 		"/>
		<linearGradient id="SVGID_33_" gradientUnits="userSpaceOnUse" x1="528.9524" y1="278.2323" x2="164.5326" y2="67.831">
			<stop  offset="0" style="stop-color:#AFB6E5"/>
			<stop  offset="0.1449" style="stop-color:#B6BCE8"/>
			<stop  offset="0.3485" style="stop-color:#C8CDF1"/>
			<stop  offset="0.5808" style="stop-color:#E5E9FF"/>
			<stop  offset="0.8551" style="stop-color:#F5F6FF"/>
			<stop  offset="1" style="stop-color:#FFFFFF"/>
		</linearGradient>
		<polygon class="st34" points="261.22,155.89 246.02,162.67 236.96,132.35 304.9,136.39 304.5,136.57 579.78,259.79 536.49,279.1 
					"/>
	</g>
	<g>
		<g>
			<linearGradient id="SVGID_34_" gradientUnits="userSpaceOnUse" x1="469.7856" y1="143.5391" x2="620.4706" y2="143.5391">
				<stop  offset="0" style="stop-color:#AFB6E5"/>
				<stop  offset="0.1449" style="stop-color:#B6BCE8"/>
				<stop  offset="0.3485" style="stop-color:#C8CDF1"/>
				<stop  offset="0.5808" style="stop-color:#E5E9FF"/>
				<stop  offset="0.9546" style="stop-color:#F5F4FC"/>
				<stop  offset="1" style="stop-color:#F7F6FB"/>
			</linearGradient>
			<polygon class="st35" points="620.47,53.23 545.13,0 469.79,120.47 500.43,106.8 500.43,287.08 589.83,247.18 589.83,66.9 			"/>
			<linearGradient id="SVGID_35_" gradientUnits="userSpaceOnUse" x1="565.2369" y1="127.9707" x2="434.1135" y2="353.6563">
				<stop  offset="0" style="stop-color:#AFB6E5"/>
				<stop  offset="0.1531" style="stop-color:#B8BFE9"/>
				<stop  offset="0.9646" style="stop-color:#E5E9FF"/>
			</linearGradient>
			<polygon class="st36" points="500.43,287.08 539.96,304.2 539.96,123.92 500.43,106.8 			"/>
			<linearGradient id="SVGID_36_" gradientUnits="userSpaceOnUse" x1="824.2166" y1="203.2547" x2="506.0766" y2="151.5199">
				<stop  offset="0" style="stop-color:#AFB6E5"/>
				<stop  offset="0.1449" style="stop-color:#B6BCE8"/>
				<stop  offset="0.3485" style="stop-color:#C8CDF1"/>
				<stop  offset="0.5808" style="stop-color:#E5E9FF"/>
				<stop  offset="0.9546" style="stop-color:#F5F4FC"/>
				<stop  offset="1" style="stop-color:#F7F6FB"/>
			</linearGradient>
			<polygon class="st37" points="660,70.35 584.66,17.12 509.32,137.6 539.96,123.92 539.96,304.2 629.36,264.3 629.36,84.03 			"/>
			<polygon class="st38" points="585.76,21.54 656.76,71.79 660,70.35 584.66,17.12 509.31,137.6 513.97,135.52 			"/>
			<linearGradient id="SVGID_37_" gradientUnits="userSpaceOnUse" x1="606.1879" y1="274.8554" x2="572.3178" y2="236.0547">
				<stop  offset="5.050510e-03" style="stop-color:#5277F7"/>
				<stop  offset="0.393" style="stop-color:#7670F4"/>
				<stop  offset="0.5253" style="stop-color:#836DF3"/>
				<stop  offset="0.6478" style="stop-color:#8C6DF3"/>
				<stop  offset="0.846" style="stop-color:#A46DF3"/>
				<stop  offset="1" style="stop-color:#BB6DF3"/>
			</linearGradient>
			<polygon class="st39" points="574.67,240.05 574.67,282.67 603.08,269.99 603.08,227.37 			"/>
			<linearGradient id="SVGID_38_" gradientUnits="userSpaceOnUse" x1="603.1941" y1="167.4733" x2="572.2385" y2="139.8824">
				<stop  offset="5.050510e-03" style="stop-color:#5277F7"/>
				<stop  offset="0.393" style="stop-color:#7670F4"/>
				<stop  offset="0.5253" style="stop-color:#836DF3"/>
				<stop  offset="0.6478" style="stop-color:#8C6DF3"/>
				<stop  offset="0.846" style="stop-color:#A46DF3"/>
				<stop  offset="1" style="stop-color:#BB6DF3"/>
			</linearGradient>
			<polygon class="st40" points="574.67,145.28 574.67,176.82 603.08,164.14 603.08,132.6 			"/>
			<linearGradient id="SVGID_39_" gradientUnits="userSpaceOnUse" x1="605.7178" y1="120.0548" x2="568.2479" y2="92.8039">
				<stop  offset="5.050510e-03" style="stop-color:#5277F7"/>
				<stop  offset="0.393" style="stop-color:#7670F4"/>
				<stop  offset="0.5253" style="stop-color:#836DF3"/>
				<stop  offset="0.6478" style="stop-color:#8C6DF3"/>
				<stop  offset="0.846" style="stop-color:#A46DF3"/>
				<stop  offset="1" style="stop-color:#BB6DF3"/>
			</linearGradient>
			<polygon class="st41" points="574.67,98.38 574.67,129.91 603.08,117.23 603.08,85.7 			"/>
			<linearGradient id="SVGID_40_" gradientUnits="userSpaceOnUse" x1="515.8592" y1="135.0342" x2="539.7465" y2="-4.2116">
				<stop  offset="5.050510e-03" style="stop-color:#903BCC"/>
				<stop  offset="0.3384" style="stop-color:#B668EF"/>
				<stop  offset="1" style="stop-color:#FF4572"/>
			</linearGradient>
			<polygon class="st42" points="469.79,120.47 509.32,137.6 584.66,17.12 545.13,0 			"/>
			<linearGradient id="SVGID_41_" gradientUnits="userSpaceOnUse" x1="634.5382" y1="262.447" x2="559.2593" y2="250.2054">
				<stop  offset="0" style="stop-color:#273B98"/>
				<stop  offset="1" style="stop-color:#12054E"/>
				<stop  offset="1" style="stop-color:#10054D"/>
			</linearGradient>
			<path class="st43" d="M574.67,240.05v42.62l28.41-12.68v-42.62L574.67,240.05z M596.36,267.13l-19.45,8.68v-34.63l19.45-8.68
				V267.13z"/>
			<polygon class="st44" points="599.53,228.95 599.53,268.55 574.67,279.65 574.67,282.67 603.08,269.99 603.08,227.37 			"/>
			<linearGradient id="SVGID_42_" gradientUnits="userSpaceOnUse" x1="603.1941" y1="214.7846" x2="572.2383" y2="187.1935">
				<stop  offset="5.050510e-03" style="stop-color:#5277F7"/>
				<stop  offset="0.393" style="stop-color:#7670F4"/>
				<stop  offset="0.5253" style="stop-color:#836DF3"/>
				<stop  offset="0.6478" style="stop-color:#8C6DF3"/>
				<stop  offset="0.846" style="stop-color:#A46DF3"/>
				<stop  offset="1" style="stop-color:#BB6DF3"/>
			</linearGradient>
			<polygon class="st45" points="574.67,192.59 574.67,224.13 603.08,211.45 603.08,179.91 			"/>
			<linearGradient id="SVGID_43_" gradientUnits="userSpaceOnUse" x1="574.6689" y1="107.8048" x2="603.0799" y2="107.8048">
				<stop  offset="0" style="stop-color:#273B98"/>
				<stop  offset="1" style="stop-color:#12054E"/>
				<stop  offset="1" style="stop-color:#10054D"/>
			</linearGradient>
			<path class="st46" d="M574.67,98.38v31.54l28.41-12.68V85.7L574.67,98.38z M576.91,99.51l8.27-3.69v23.54l-8.27,3.69V99.51z
				 M596.36,114.37l-8,3.57V94.4l8-3.57V114.37z"/>
			<g>
				<polygon class="st47" points="581.12,285.7 581.12,288.32 609.91,275.57 609.91,272.95 				"/>
				<polygon class="st47" points="587.58,291.2 587.58,294.39 616.36,281.65 616.36,278.45 				"/>
				<linearGradient id="SVGID_44_" gradientUnits="userSpaceOnUse" x1="622.5683" y1="237.8781" x2="595.3339" y2="289.7813">
					<stop  offset="0" style="stop-color:#AFB6E5"/>
					<stop  offset="0.1449" style="stop-color:#B6BCE8"/>
					<stop  offset="0.3485" style="stop-color:#C8CDF1"/>
					<stop  offset="0.5808" style="stop-color:#E5E9FF"/>
					<stop  offset="0.9546" style="stop-color:#F5F4FC"/>
					<stop  offset="1" style="stop-color:#F7F6FB"/>
				</linearGradient>
				<polygon class="st48" points="581.07,288.23 587.6,291.2 616.36,278.45 609.79,275.46 				"/>
				<linearGradient id="SVGID_45_" gradientUnits="userSpaceOnUse" x1="598.5424" y1="305.199" x2="590.4824" y2="270.0937">
					<stop  offset="0" style="stop-color:#AFB6E5"/>
					<stop  offset="0.1449" style="stop-color:#B6BCE8"/>
					<stop  offset="0.3485" style="stop-color:#C8CDF1"/>
					<stop  offset="0.5808" style="stop-color:#E5E9FF"/>
					<stop  offset="0.9546" style="stop-color:#F5F4FC"/>
					<stop  offset="1" style="stop-color:#F7F6FB"/>
				</linearGradient>
				<polygon class="st49" points="574.61,282.73 581.14,285.7 609.91,272.95 599.51,268.51 574.66,279.69 				"/>
			</g>
			<polygon class="st50" points="587.68,294.31 587.68,293.82 587.6,293.75 587.6,291.2 581.14,288.26 581.14,285.7 574.69,282.76 
				574.69,288.68 			"/>
			<linearGradient id="SVGID_46_" gradientUnits="userSpaceOnUse" x1="574.6689" y1="154.71" x2="603.0799" y2="154.71">
				<stop  offset="0" style="stop-color:#273B98"/>
				<stop  offset="1" style="stop-color:#12054E"/>
				<stop  offset="1" style="stop-color:#10054D"/>
			</linearGradient>
			<path class="st51" d="M574.67,145.28v31.54l28.41-12.68V132.6L574.67,145.28z M576.91,146.42l8.27-3.69v23.54l-8.27,3.69V146.42z
				 M596.36,161.27l-8,3.57V141.3l8-3.57V161.27z"/>
			<linearGradient id="SVGID_47_" gradientUnits="userSpaceOnUse" x1="574.6689" y1="202.0212" x2="603.0799" y2="202.0212">
				<stop  offset="0" style="stop-color:#273B98"/>
				<stop  offset="1" style="stop-color:#12054E"/>
				<stop  offset="1" style="stop-color:#10054D"/>
			</linearGradient>
			<path class="st52" d="M574.67,192.59v31.54l28.41-12.68v-31.54L574.67,192.59z M576.91,193.73l8.27-3.69v23.54l-8.27,3.69V193.73
				z M596.36,208.58l-8,3.57v-23.54l8-3.57V208.58z"/>
			<polygon class="st44" points="599.53,134.18 599.53,162.7 574.67,173.79 574.67,176.82 603.08,164.14 603.08,132.6 			"/>
			<polygon class="st44" points="599.53,181.5 599.53,210.01 574.67,221.1 574.67,224.13 603.08,211.45 603.08,179.91 			"/>
			<polygon class="st44" points="599.53,87.28 599.53,115.79 574.67,126.89 574.67,129.91 603.08,117.23 603.08,85.7 			"/>
			
				<radialGradient id="SVGID_48_" cx="301.3041" cy="91.0867" r="35.1142" gradientTransform="matrix(1.8255 0 0 1.4111 -23.8636 -104.2403)" gradientUnits="userSpaceOnUse">
				<stop  offset="0" style="stop-color:#F36DD4"/>
				<stop  offset="0.1142" style="stop-color:#BD55A5"/>
				<stop  offset="0.2347" style="stop-color:#8B3E79"/>
				<stop  offset="0.3582" style="stop-color:#602B54"/>
				<stop  offset="0.4824" style="stop-color:#3E1C36"/>
				<stop  offset="0.6078" style="stop-color:#230F1E"/>
				<stop  offset="0.7347" style="stop-color:#0F070D"/>
				<stop  offset="0.8641" style="stop-color:#040203"/>
				<stop  offset="1" style="stop-color:#000000"/>
			</radialGradient>
			<polygon class="st53" points="545.77,79.3 584.66,17.12 545.77,0.28 			"/>
		</g>
		<g>
			<linearGradient id="SVGID_49_" gradientUnits="userSpaceOnUse" x1="306.0744" y1="245.4697" x2="456.7594" y2="245.4697">
				<stop  offset="0" style="stop-color:#AFB6E5"/>
				<stop  offset="0.1449" style="stop-color:#B6BCE8"/>
				<stop  offset="0.3485" style="stop-color:#C8CDF1"/>
				<stop  offset="0.5808" style="stop-color:#E5E9FF"/>
				<stop  offset="0.9546" style="stop-color:#F5F4FC"/>
				<stop  offset="1" style="stop-color:#F7F6FB"/>
			</linearGradient>
			<polygon class="st54" points="456.76,184 381.42,130.78 306.07,251.25 336.72,237.58 336.72,360.16 426.12,320.26 426.12,197.68 
							"/>
			<linearGradient id="SVGID_50_" gradientUnits="userSpaceOnUse" x1="387.5616" y1="253.9356" x2="297.0861" y2="409.6594">
				<stop  offset="0" style="stop-color:#AFB6E5"/>
				<stop  offset="0.1531" style="stop-color:#B8BFE9"/>
				<stop  offset="0.9646" style="stop-color:#E5E9FF"/>
			</linearGradient>
			<polygon class="st55" points="336.72,360.16 376.24,377.29 376.24,254.7 336.72,237.58 			"/>
			<linearGradient id="SVGID_51_" gradientUnits="userSpaceOnUse" x1="663.0497" y1="305.5991" x2="346.9416" y2="254.1947">
				<stop  offset="0" style="stop-color:#AFB6E5"/>
				<stop  offset="0.1449" style="stop-color:#B6BCE8"/>
				<stop  offset="0.3485" style="stop-color:#C8CDF1"/>
				<stop  offset="0.5808" style="stop-color:#E5E9FF"/>
				<stop  offset="0.9546" style="stop-color:#F5F4FC"/>
				<stop  offset="1" style="stop-color:#F7F6FB"/>
			</linearGradient>
			<polygon class="st56" points="496.29,201.13 420.95,147.9 345.6,268.38 376.24,254.7 376.24,377.29 465.65,337.39 465.65,214.8 
							"/>
			<polygon class="st38" points="422.04,152.32 493.05,202.57 496.29,201.13 420.95,147.9 345.6,268.38 350.26,266.3 			"/>
			<linearGradient id="SVGID_52_" gradientUnits="userSpaceOnUse" x1="442.4767" y1="347.9377" x2="408.6065" y2="309.1371">
				<stop  offset="5.050510e-03" style="stop-color:#5277F7"/>
				<stop  offset="0.393" style="stop-color:#7670F4"/>
				<stop  offset="0.5253" style="stop-color:#836DF3"/>
				<stop  offset="0.6478" style="stop-color:#8C6DF3"/>
				<stop  offset="0.846" style="stop-color:#A46DF3"/>
				<stop  offset="1" style="stop-color:#BB6DF3"/>
			</linearGradient>
			<polygon class="st57" points="410.96,313.13 410.96,355.75 439.37,343.07 439.37,300.45 			"/>
			<linearGradient id="SVGID_53_" gradientUnits="userSpaceOnUse" x1="439.4829" y1="289.0208" x2="408.5272" y2="261.4298">
				<stop  offset="5.050510e-03" style="stop-color:#5277F7"/>
				<stop  offset="0.393" style="stop-color:#7670F4"/>
				<stop  offset="0.5253" style="stop-color:#836DF3"/>
				<stop  offset="0.6478" style="stop-color:#8C6DF3"/>
				<stop  offset="0.846" style="stop-color:#A46DF3"/>
				<stop  offset="1" style="stop-color:#BB6DF3"/>
			</linearGradient>
			<polygon class="st58" points="410.96,266.83 410.96,298.36 439.37,285.69 439.37,254.15 			"/>
			<linearGradient id="SVGID_54_" gradientUnits="userSpaceOnUse" x1="442.0065" y1="241.6022" x2="404.5366" y2="214.3513">
				<stop  offset="5.050510e-03" style="stop-color:#5277F7"/>
				<stop  offset="0.393" style="stop-color:#7670F4"/>
				<stop  offset="0.5253" style="stop-color:#836DF3"/>
				<stop  offset="0.6478" style="stop-color:#8C6DF3"/>
				<stop  offset="0.846" style="stop-color:#A46DF3"/>
				<stop  offset="1" style="stop-color:#BB6DF3"/>
			</linearGradient>
			<polygon class="st59" points="410.96,219.92 410.96,251.46 439.37,238.78 439.37,207.24 			"/>
			<linearGradient id="SVGID_55_" gradientUnits="userSpaceOnUse" x1="352.1479" y1="265.813" x2="376.0351" y2="126.5672">
				<stop  offset="5.050510e-03" style="stop-color:#903BCC"/>
				<stop  offset="0.3384" style="stop-color:#B668EF"/>
				<stop  offset="1" style="stop-color:#FF4572"/>
			</linearGradient>
			<polygon class="st60" points="306.07,251.25 345.6,268.38 420.95,147.9 381.42,130.78 			"/>
			<linearGradient id="SVGID_56_" gradientUnits="userSpaceOnUse" x1="470.8269" y1="335.5293" x2="395.548" y2="323.2877">
				<stop  offset="0" style="stop-color:#273B98"/>
				<stop  offset="1" style="stop-color:#12054E"/>
				<stop  offset="1" style="stop-color:#10054D"/>
			</linearGradient>
			<path class="st61" d="M410.96,313.13v42.62l28.41-12.68v-42.62L410.96,313.13z M432.65,340.21l-19.45,8.68v-34.63l19.45-8.68
				V340.21z"/>
			<polygon class="st44" points="435.82,302.03 435.82,341.63 410.96,352.73 410.96,355.75 439.37,343.07 439.37,300.45 			"/>
			<linearGradient id="SVGID_57_" gradientUnits="userSpaceOnUse" x1="410.9576" y1="229.3523" x2="439.3684" y2="229.3523">
				<stop  offset="0" style="stop-color:#273B98"/>
				<stop  offset="1" style="stop-color:#12054E"/>
				<stop  offset="1" style="stop-color:#10054D"/>
			</linearGradient>
			<path class="st62" d="M410.96,219.92v31.54l28.41-12.68v-31.54L410.96,219.92z M413.2,221.06l8.52-3.8v23.54l-8.52,3.8V221.06z
				 M432.65,235.92l-8.11,3.62v-23.54l8.11-3.62V235.92z"/>
			<linearGradient id="SVGID_58_" gradientUnits="userSpaceOnUse" x1="410.9576" y1="276.2574" x2="439.3684" y2="276.2574">
				<stop  offset="0" style="stop-color:#273B98"/>
				<stop  offset="1" style="stop-color:#12054E"/>
				<stop  offset="1" style="stop-color:#10054D"/>
			</linearGradient>
			<path class="st63" d="M410.96,266.83v31.54l28.41-12.68v-31.54L410.96,266.83z M413.2,267.96l8.52-3.8v23.54l-8.52,3.8V267.96z
				 M432.65,282.82l-8.11,3.62V262.9l8.11-3.62V282.82z"/>
			<g>
				<polygon class="st47" points="417.41,358.78 417.41,361.4 446.2,348.65 446.2,346.03 				"/>
				<polygon class="st47" points="423.86,364.28 423.86,367.48 452.65,354.73 452.65,351.53 				"/>
				<linearGradient id="SVGID_59_" gradientUnits="userSpaceOnUse" x1="458.8569" y1="310.9606" x2="431.6225" y2="362.8636">
					<stop  offset="0" style="stop-color:#AFB6E5"/>
					<stop  offset="0.1449" style="stop-color:#B6BCE8"/>
					<stop  offset="0.3485" style="stop-color:#C8CDF1"/>
					<stop  offset="0.5808" style="stop-color:#E5E9FF"/>
					<stop  offset="0.9546" style="stop-color:#F5F4FC"/>
					<stop  offset="1" style="stop-color:#F7F6FB"/>
				</linearGradient>
				<polygon class="st64" points="417.35,361.31 423.89,364.28 452.65,351.53 446.08,348.54 				"/>
				<linearGradient id="SVGID_60_" gradientUnits="userSpaceOnUse" x1="438.7994" y1="385.6824" x2="426.7836" y2="344.9333">
					<stop  offset="0" style="stop-color:#AFB6E5"/>
					<stop  offset="0.1449" style="stop-color:#B6BCE8"/>
					<stop  offset="0.3485" style="stop-color:#C8CDF1"/>
					<stop  offset="0.5808" style="stop-color:#E5E9FF"/>
					<stop  offset="0.9546" style="stop-color:#F5F4FC"/>
					<stop  offset="1" style="stop-color:#F7F6FB"/>
				</linearGradient>
				<polygon class="st65" points="410.9,355.81 417.43,358.78 446.2,346.03 435.8,341.59 410.95,352.77 				"/>
			</g>
			<polygon class="st50" points="423.97,367.39 423.97,366.9 423.89,366.83 423.89,364.28 417.43,361.35 417.43,358.78 
				410.98,355.85 410.98,361.76 			"/>
			<polygon class="st44" points="435.82,255.73 435.82,284.24 410.96,295.34 410.96,298.36 439.37,285.69 439.37,254.15 			"/>
			<polygon class="st44" points="435.82,208.83 435.82,237.34 410.96,248.44 410.96,251.46 439.37,238.78 439.37,207.24 			"/>
		</g>
		<g>
			<linearGradient id="SVGID_61_" gradientUnits="userSpaceOnUse" x1="142.3629" y1="341.246" x2="293.0479" y2="341.246">
				<stop  offset="0" style="stop-color:#AFB6E5"/>
				<stop  offset="0.1449" style="stop-color:#B6BCE8"/>
				<stop  offset="0.3485" style="stop-color:#C8CDF1"/>
				<stop  offset="0.5808" style="stop-color:#E5E9FF"/>
				<stop  offset="0.9546" style="stop-color:#F5F4FC"/>
				<stop  offset="1" style="stop-color:#F7F6FB"/>
			</linearGradient>
			<polygon class="st66" points="293.05,302.86 217.71,249.63 142.36,370.11 173,356.43 173,432.86 262.41,392.96 262.41,316.53 			
				"/>
			<linearGradient id="SVGID_62_" gradientUnits="userSpaceOnUse" x1="212.6791" y1="368.9393" x2="154.7218" y2="468.6937">
				<stop  offset="0" style="stop-color:#AFB6E5"/>
				<stop  offset="0.1531" style="stop-color:#B8BFE9"/>
				<stop  offset="0.9646" style="stop-color:#E5E9FF"/>
			</linearGradient>
			<polygon class="st67" points="173,432.86 212.53,449.98 212.53,373.56 173,356.43 			"/>
			<linearGradient id="SVGID_63_" gradientUnits="userSpaceOnUse" x1="502.9943" y1="401.9699" x2="186.8866" y2="350.5656">
				<stop  offset="0" style="stop-color:#AFB6E5"/>
				<stop  offset="0.1449" style="stop-color:#B6BCE8"/>
				<stop  offset="0.3485" style="stop-color:#C8CDF1"/>
				<stop  offset="0.5808" style="stop-color:#E5E9FF"/>
				<stop  offset="0.9546" style="stop-color:#F5F4FC"/>
				<stop  offset="1" style="stop-color:#F7F6FB"/>
			</linearGradient>
			<polygon class="st68" points="332.58,319.98 257.23,266.76 181.89,387.23 212.53,373.56 212.53,449.98 301.94,410.08 
				301.94,333.66 			"/>
			<polygon class="st38" points="258.33,271.17 329.34,321.43 332.58,319.98 257.23,266.76 181.89,387.23 186.55,385.16 			"/>
			<linearGradient id="SVGID_64_" gradientUnits="userSpaceOnUse" x1="278.7654" y1="420.6354" x2="244.8951" y2="381.8347">
				<stop  offset="5.050510e-03" style="stop-color:#5277F7"/>
				<stop  offset="0.393" style="stop-color:#7670F4"/>
				<stop  offset="0.5253" style="stop-color:#836DF3"/>
				<stop  offset="0.6478" style="stop-color:#8C6DF3"/>
				<stop  offset="0.846" style="stop-color:#A46DF3"/>
				<stop  offset="1" style="stop-color:#BB6DF3"/>
			</linearGradient>
			<polygon class="st69" points="247.25,385.83 247.25,428.45 275.66,415.77 275.66,373.15 			"/>
			<linearGradient id="SVGID_65_" gradientUnits="userSpaceOnUse" x1="278.2953" y1="359.3033" x2="240.8251" y2="332.0522">
				<stop  offset="5.050510e-03" style="stop-color:#5277F7"/>
				<stop  offset="0.393" style="stop-color:#7670F4"/>
				<stop  offset="0.5253" style="stop-color:#836DF3"/>
				<stop  offset="0.6478" style="stop-color:#8C6DF3"/>
				<stop  offset="0.846" style="stop-color:#A46DF3"/>
				<stop  offset="1" style="stop-color:#BB6DF3"/>
			</linearGradient>
			<polygon class="st70" points="247.25,337.63 247.25,369.16 275.66,356.48 275.66,324.95 			"/>
			<linearGradient id="SVGID_66_" gradientUnits="userSpaceOnUse" x1="188.4365" y1="384.6681" x2="212.3238" y2="245.4223">
				<stop  offset="5.050510e-03" style="stop-color:#903BCC"/>
				<stop  offset="0.3384" style="stop-color:#B668EF"/>
				<stop  offset="1" style="stop-color:#FF4572"/>
			</linearGradient>
			<polygon class="st71" points="142.36,370.11 181.89,387.23 257.23,266.76 217.71,249.63 			"/>
			<linearGradient id="SVGID_67_" gradientUnits="userSpaceOnUse" x1="307.1155" y1="408.2271" x2="231.8366" y2="395.9854">
				<stop  offset="0" style="stop-color:#273B98"/>
				<stop  offset="1" style="stop-color:#12054E"/>
				<stop  offset="1" style="stop-color:#10054D"/>
			</linearGradient>
			<path class="st72" d="M247.25,385.83v42.62l28.41-12.68v-42.62L247.25,385.83z M268.94,412.91l-19.45,8.68v-34.63l19.45-8.68
				V412.91z"/>
			<polygon class="st44" points="272.11,374.73 272.11,414.33 247.25,425.43 247.25,428.45 275.66,415.77 275.66,373.15 			"/>
			<linearGradient id="SVGID_68_" gradientUnits="userSpaceOnUse" x1="247.2462" y1="347.0533" x2="275.657" y2="347.0533">
				<stop  offset="0" style="stop-color:#273B98"/>
				<stop  offset="1" style="stop-color:#12054E"/>
				<stop  offset="1" style="stop-color:#10054D"/>
			</linearGradient>
			<path class="st73" d="M247.25,337.63v31.54l28.41-12.68v-31.54L247.25,337.63z M249.48,338.76l8.39-3.75v23.54l-8.39,3.75V338.76
				z M268.94,353.62l-8.23,3.67v-23.54l8.23-3.67V353.62z"/>
			<polygon class="st44" points="272.11,326.53 272.11,355.04 247.25,366.14 247.25,369.16 275.66,356.48 275.66,324.95 			"/>
			<g>
				<polygon class="st47" points="253.7,431.48 253.7,434.1 282.49,421.35 282.49,418.73 				"/>
				<polygon class="st47" points="260.15,436.98 260.15,440.17 288.94,427.43 288.94,424.23 				"/>
				<linearGradient id="SVGID_69_" gradientUnits="userSpaceOnUse" x1="295.1456" y1="383.6581" x2="267.9112" y2="435.5613">
					<stop  offset="0" style="stop-color:#AFB6E5"/>
					<stop  offset="0.1449" style="stop-color:#B6BCE8"/>
					<stop  offset="0.3485" style="stop-color:#C8CDF1"/>
					<stop  offset="0.5808" style="stop-color:#E5E9FF"/>
					<stop  offset="0.9546" style="stop-color:#F5F4FC"/>
					<stop  offset="1" style="stop-color:#F7F6FB"/>
				</linearGradient>
				<polygon class="st74" points="253.64,434.01 260.17,436.98 288.94,424.23 282.37,421.24 				"/>
				<linearGradient id="SVGID_70_" gradientUnits="userSpaceOnUse" x1="276.9073" y1="452.4742" x2="262.7684" y2="418.671">
					<stop  offset="0" style="stop-color:#AFB6E5"/>
					<stop  offset="0.1449" style="stop-color:#B6BCE8"/>
					<stop  offset="0.3485" style="stop-color:#C8CDF1"/>
					<stop  offset="0.5808" style="stop-color:#E5E9FF"/>
					<stop  offset="0.9546" style="stop-color:#F5F4FC"/>
					<stop  offset="1" style="stop-color:#F7F6FB"/>
				</linearGradient>
				<polygon class="st75" points="247.19,428.51 253.72,431.48 282.49,418.73 272.08,414.29 247.24,425.47 				"/>
			</g>
			<polygon class="st50" points="260.26,440.09 260.26,439.6 260.17,439.53 260.17,436.98 253.72,434.04 253.72,431.48 
				247.27,428.54 247.27,434.46 			"/>
		</g>
		
			<radialGradient id="SVGID_71_" cx="211.3041" cy="184.0867" r="35.1142" gradientTransform="matrix(1.8255 0 0 1.4111 -23.8636 -104.2403)" gradientUnits="userSpaceOnUse">
			<stop  offset="0" style="stop-color:#F36DD4"/>
			<stop  offset="0.1142" style="stop-color:#BD55A5"/>
			<stop  offset="0.2347" style="stop-color:#8B3E79"/>
			<stop  offset="0.3582" style="stop-color:#602B54"/>
			<stop  offset="0.4824" style="stop-color:#3E1C36"/>
			<stop  offset="0.6078" style="stop-color:#230F1E"/>
			<stop  offset="0.7347" style="stop-color:#0F070D"/>
			<stop  offset="0.8641" style="stop-color:#040203"/>
			<stop  offset="1" style="stop-color:#000000"/>
		</radialGradient>
		<polygon class="st76" points="381.47,210.54 420.36,148.36 381.47,131.51 		"/>
		
			<radialGradient id="SVGID_72_" cx="344.1423" cy="247.0941" r="16.5355" gradientTransform="matrix(1.8255 0 0 1.4111 -23.8636 -104.2403)" gradientUnits="userSpaceOnUse">
			<stop  offset="0" style="stop-color:#F36DD4"/>
			<stop  offset="0.1142" style="stop-color:#BD55A5"/>
			<stop  offset="0.2347" style="stop-color:#8B3E79"/>
			<stop  offset="0.3582" style="stop-color:#602B54"/>
			<stop  offset="0.4824" style="stop-color:#3E1C36"/>
			<stop  offset="0.6078" style="stop-color:#230F1E"/>
			<stop  offset="0.7347" style="stop-color:#0F070D"/>
			<stop  offset="0.8641" style="stop-color:#040203"/>
			<stop  offset="1" style="stop-color:#000000"/>
		</radialGradient>
		<polygon class="st77" points="576.54,265.51 597.37,232.2 576.54,241.61 		"/>
		
			<radialGradient id="SVGID_73_" cx="254.809" cy="298.4274" r="16.5355" gradientTransform="matrix(1.8255 0 0 1.4111 -23.8636 -104.2403)" gradientUnits="userSpaceOnUse">
			<stop  offset="0" style="stop-color:#F36DD4"/>
			<stop  offset="0.1142" style="stop-color:#BD55A5"/>
			<stop  offset="0.2347" style="stop-color:#8B3E79"/>
			<stop  offset="0.3582" style="stop-color:#602B54"/>
			<stop  offset="0.4824" style="stop-color:#3E1C36"/>
			<stop  offset="0.6078" style="stop-color:#230F1E"/>
			<stop  offset="0.7347" style="stop-color:#0F070D"/>
			<stop  offset="0.8641" style="stop-color:#040203"/>
			<stop  offset="1" style="stop-color:#000000"/>
		</radialGradient>
		<polygon class="st78" points="413.46,337.95 434.29,304.64 413.46,314.05 		"/>
		
			<radialGradient id="SVGID_74_" cx="165.1423" cy="350.0941" r="16.5355" gradientTransform="matrix(1.8255 0 0 1.4111 -23.8636 -104.2403)" gradientUnits="userSpaceOnUse">
			<stop  offset="0" style="stop-color:#F36DD4"/>
			<stop  offset="0.1142" style="stop-color:#BD55A5"/>
			<stop  offset="0.2347" style="stop-color:#8B3E79"/>
			<stop  offset="0.3582" style="stop-color:#602B54"/>
			<stop  offset="0.4824" style="stop-color:#3E1C36"/>
			<stop  offset="0.6078" style="stop-color:#230F1E"/>
			<stop  offset="0.7347" style="stop-color:#0F070D"/>
			<stop  offset="0.8641" style="stop-color:#040203"/>
			<stop  offset="1" style="stop-color:#000000"/>
		</radialGradient>
		<polygon class="st79" points="249.77,410.86 270.6,377.55 249.77,386.95 		"/>
		
			<radialGradient id="SVGID_75_" cx="121.6375" cy="268.7534" r="35.1141" gradientTransform="matrix(1.8255 0 0 1.4111 -23.8636 -104.2403)" gradientUnits="userSpaceOnUse">
			<stop  offset="0" style="stop-color:#F36DD4"/>
			<stop  offset="0.1142" style="stop-color:#BD55A5"/>
			<stop  offset="0.2347" style="stop-color:#8B3E79"/>
			<stop  offset="0.3582" style="stop-color:#602B54"/>
			<stop  offset="0.4824" style="stop-color:#3E1C36"/>
			<stop  offset="0.6078" style="stop-color:#230F1E"/>
			<stop  offset="0.7347" style="stop-color:#0F070D"/>
			<stop  offset="0.8641" style="stop-color:#040203"/>
			<stop  offset="1" style="stop-color:#000000"/>
		</radialGradient>
		<polygon class="st80" points="217.78,330.01 256.67,267.83 217.78,250.99 		"/>
	</g>
</g>
</svg>
